<svg width="70" height="42" fill="none" xmlns="http://www.w3.org/2000/svg"><path d="M47.982 10.182v-9.8h-5.218v9.8c0 4.963 2.418 7.254 7.381 7.254h7.891V.382h-5.218v12.473h-2.29c-1.655 0-2.546-.51-2.546-2.673zM28.636 26.346v9.8h5.219v-9.8c0-4.964-2.419-7.255-7.382-7.255h-7.891v17.054H23.8V23.673h2.29c1.655 0 2.546.636 2.546 2.673zm7-19.856h-4.963V.383h-5.218v17.054H30.8v-6.49h4.836v6.49h5.346V.382h-5.346V6.49zm25.837 12.22c-5.855 0-8.528 3.817-8.528 8.908 0 5.218 2.673 8.91 8.528 8.91 5.854 0 8.527-3.819 8.527-8.91 0-5.09-2.673-8.909-8.527-8.909zm0 13.617c-2.419 0-3.182-1.909-3.182-4.581 0-2.673.89-4.582 3.182-4.582 2.418 0 3.181 1.909 3.181 4.581 0 2.546-.763 4.582-3.181 4.582zM15.527 0C10.691 0 8.145 2.673 7.51 6.49H5.345V.383H0v17.182h5.345v-6.619H7.51c.636 4.073 3.182 6.873 8.146 6.873 5.854 0 8.527-3.818 8.527-8.909C24.055 3.82 21.382 0 15.527 0zm0 13.618c-2.418 0-3.181-1.909-3.181-4.582 0-2.672.763-4.581 3.181-4.581s3.182 1.909 3.182 4.581c0 2.546-.764 4.455-3.182 4.582zm25.455 22.655h2.036c5.727 0 8.91-2.8 8.91-8.528 0-5.727-3.183-8.527-8.91-8.527h-7.382v22.91h5.218v-5.855h.128zm0-4.71v-7.89h1.782c2.418 0 3.818.89 3.818 3.945 0 2.928-1.4 3.946-3.818 3.946h-1.782z" fill="#0078DC"/></svg>